<svg xmlns="http://www.w3.org/2000/svg" viewBox="0 0 33.14618 88.41329"><g id="レイヤー_2" data-name="レイヤー 2"><g id="レイヤー_1-2" data-name="レイヤー 1"><path d="M25.89251,1.10345a18.21273,18.21273,0,0,1-1.31931,3.2353c.0449.3282-.4219.4727-.34669.7637a14.69161,14.69161,0,0,0-1.125,2.3897l-.11811.1484c.11811.2939.5048.1875.6982.1123a17.22123,17.22123,0,0,0,2.293-1.0693l.0761.0742a4.99908,4.99908,0,0,1,1.3223-.3311c.7373.3311,1.707.5918,2.06051,1.4014,0,.583-.50871.7314-.74411,1.249-.541.918-1.668,1.0654-2.2891,1.9043-1.04779.4424-1.9043,1.3281-3.1464,1.3604-.3038-.3995.2734-.6592.3515-1.1006.3076-.1074.3877-.5489.6963-.7354l-.07519-.0322c.26949-.4063.81539-.7744.89359-1.2861-.93259-.335-1.6319.7304-2.4063.955a2.3213,2.3213,0,0,1-1.94329.7706c-.42481-.5889-.35161-1.1055-.66311-1.7256.2734-1.876,1.4785-3.1983,2.1787-4.9278a12.07178,12.07178,0,0,0,1.165-3.6718C23.913.43835,24.457.04,25.0781.25675A2.07417,2.07417,0,0,1,25.89251,1.10345Z" style="fill:#2d1c0e"/><path d="M23.4121,13.81145c.6582-.2168,1.0117.6269,1.5918.7695.1162.374.5839.5908.4277,1.0664-.5859.5157-1.8662.4785-2.5254,1.1035a8.73586,8.73586,0,0,1-2.3691.7364c-.4678-.918,1.2002-1.2139,1.2373-2.0215,1.1318-.294-.2705-2.7539,1.4795-1.8008Z" style="fill:#2d1c0e"/><path d="M29.43351,17.63465c.53619.1817.46489.8467.34869,1.25a23.68915,23.68915,0,0,1-3.88969,2.6084,13.886,13.886,0,0,1-2.98631,2.2412l-.2734.2549c.42671.1114,1.0488.1455,1.59371.2207v.1114A13.09949,13.09949,0,0,1,27.1367,25.457a2.17611,2.17611,0,0,1,.584,1.7646,3.31339,3.31339,0,0,1-1.4795.4795,2.14482,2.14482,0,0,1-1.585.2608c-.42969-.335-1.168-.5938-.7803-1.1778.2354-.1113.1543-.4043.0782-.5527-.7373-.6973-2.0977-.4033-2.8731-1.0273-.31049.1425-.4668-.2588-.6621-.4092a1.62236,1.62236,0,0,1,.39361-1.8369c.92479-.0703,1.62689-.8799,2.289-1.3203.69629-.625,1.669-1.2481,1.97659-2.0928a3.7792,3.7792,0,0,0-.9668.4424c-.3897.1797-.8574.1797-1.1279.5468l-.0772-.0693a3.78683,3.78683,0,0,1-3.6875-.1494c-.4297-.1826-.3125-.6621-.3516-.918.1182-.1113.3516-.0351.503-.0742l.1982.2217c2.3643-.6963,4.1533-1.6904,6.4063-2.5733,1.0468.1485,2.0547-.3652,2.9101.4434Z" style="fill:#2d1c0e"/><path d="M16.3818,5.32705a3.39142,3.39142,0,0,0-1.6709-.7363c-.3848-.5488-1.0889-.252-1.4717-.7344.3076-.918,1.3184-1.6504.69631-2.6074-.42871-.4414-.541-1.3213-1.31741-1.2442-.3515-.0419-.3135.3594-.5097.4336.04.2256-.0303.4786.07911.6651-.34771.6982-1.20221,1.4658-1.39651,2.3887-.543.2197-.23249.9892-.8936,1.249a16.78154,16.78154,0,0,1-1.2431,2.5,4.36574,4.36574,0,0,0-.6211,1.0957c-1.1631,1.581-1.9043,3.2715-3.1456,4.8144a2.43657,2.43657,0,0,0-1.3994,1.3946,3.60686,3.60686,0,0,0,.0782,2.5371c.3125-.0391.8564.1474,1.124-.1797.1972-.0801.5488-.2969.706.0683a10.60307,10.60307,0,0,0,.7325,1.5098l.0791-.0781c.1953.5146.8213.4814,1.1289.5918-.3516.291-.5049.8076-.85839.9922a2.08154,2.08154,0,0,0-.34961,1.249c.5058.1816,1.0127.5459,1.55861.4014.61909.2187-.11821.664-.084,1.0664a3.66619,3.66619,0,0,0-.501.9218c-.46781.2911-.38971.9541-.89451,1.2461-1.2071.295-.7754,1.5791-.9688,2.4278.3506.5449.2315,1.3945.8526,1.7207.2333.039.621.1865.8154,0l.15231.1123c.08209.04.12109-.0733.19629-.1123.34771.1123.7402-.1836.97071-.291l.08009.0703c.1553.0781.2344-.1055.3477-.1778a6.40873,6.40873,0,0,0,3.4541-2.5761c-.0303-.3321.4306-.4405.3144-.7696.8525-1.2129.88971-2.6816,1.707-3.8955,0-.7724.5811-1.2842.5811-2.0576.04-.3281-.1123-.7715.1172-1.0254-.1172-.5908.5478-1.0674.3525-1.6543-.1543-.0742-.2344.1074-.3525.1797a.16264.16264,0,0,0,.081.1484.477.477,0,0,0-.3515.5157c-.62209,1.2851-1.5157,2.5332-2.1348,3.6738a.19517.19517,0,0,1-.3447-.1094c.3066-.7363.8486-1.7285.3447-2.4277a.89292.89292,0,0,1,.2666-.917c-.1504-1.2139,1.3613-1.2861,1.9424-1.9814-.15629-.334.0791-.8477-.502-.9913a2.31682,2.31682,0,0,1-1.2431-.5849,2.50749,2.50749,0,0,0-.6201-1.6602c.3896-.7344,1.3554-.4013,1.5918-1.248.1923-1.1367-1.04989-.8789-1.67089-1.3946l-1.31651.0713c-.1992.0381-.3886.2246-.5468-.0713-.1934-.2539.039-.5136.2734-.6972a21.013,21.013,0,0,1,1.8613-3.5645c.7364.4043-.4658,1.0274-.0361,1.6563.3516.3623.7022-.1875,1.084.0703.8555-.8106,2.17871-.4404,3.0703-.4785C17.0019,6.39345,16.5771,5.76845,16.3818,5.32705ZM10.871,22.22645c.2696.1866.5411-.1845.6934.1866-1.04589,1.4296-2.0557,3.4853-4.1143,3.7822.0743-.6992.8985-1.2852,1.2813-1.874A22.85667,22.85667,0,0,1,10.871,22.22645Zm-.4296-8.3398c-.1543.4043.1562,1.0683-.544,1.251a14.61336,14.61336,0,0,1-3.456,1.1015c-.1553-.4062-.6602.0703-.5821-.4404.5821-.5879.7754-1.4346,1.5908-1.8018.5049-.625.7393-1.4707,1.5518-1.9091l.1182.1464c.1191.5498-.7715,1.0284-.2725,1.4307C9.4677,13.96085,10.0927,12.97155,10.4414,13.88665Z" style="fill:#2d1c0e"/><path d="M9.2246,45.47355a5.77065,5.77065,0,0,0,2.4824-.5156c.625.3349-.0361.7754.1553,1.1777,1.4003.9883,2.5253-.5879,4.0009-.7012.0391.1133.19731.1133.2744.1866a1.77806,1.77806,0,0,1-.8525,1.7978c.0752.5176.8858.5547,1.2012.9961l.07521-.0791c.15719.1865.38959.1465.624.1865,1.94139-.7334.42379-2.8633,1.86519-3.9687,1.086-.3262,2.0577-.3643,3.1407-.6602.7402-.4023,2.0605-.6611,2.0605-1.5771-.1943-1.1016-1.4756-.5498-2.0605-1.1397-.0401-.1094.12111-.1465.082-.2578A26.39044,26.39044,0,0,0,24.872,39.414c.544-.2588.6944-.9521,1.3233-1.0634a4.11955,4.11955,0,0,0,.9668-1.6543h.0781c.5088-.7735-.38669-1.3252-.6973-1.9082a8.4465,8.4465,0,0,0-5.9433-.4063c-.3467,0-.5049-.4424-.4268-.6582-.54-.9199.3506-1.9873-.54-2.7959h-.1592c-.9346-.9189-2.0947-.4053-3.336-.4395-.5107.2198-.3144.6954-.2744,1.0645a.88889.88889,0,0,0,.8955.5879c.5069.7705.2344,2.0596.1924,3.0488a7.68649,7.68649,0,0,1-2.4853,1.0264c-.541.1474-1.3594,0-1.6309.4072a3.70556,3.70556,0,0,0,3.0674,1.1397c1.0488.5117.4648,1.8398.69821,2.6445-.27051.6953-1.166.623-1.58881,1.249-.6241-.1474-.5459.4404-.8584.7383-.461.3643-1.1983.1016-1.7823.1787-.5839-.1113-.5839-.6992-.8584-1.0644a8.17034,8.17034,0,0,1-1.2353-2.6504c-.0439-.5489-.6641-.9512-1.0527-1.2442-.2725-.1455-.1534-.5879-.585-.5879.083.5137-.61909.7686-.6982,1.2481a8.09987,8.09987,0,0,0-.2696,3.8574c.6192.6602.38771,1.7324.9678,2.3516C8.4853,44.88765,9.0312,45.14345,9.2246,45.47355ZM20.4453,36.623a9.23251,9.23251,0,0,1,2.7998-1.3232,1.72773,1.72773,0,0,1,1.4726.1465c0,1.2119-1.6738,1.8339-2.6386,2.5732-.4307.624-1.1651.7334-1.75,1.1357A6.24551,6.24551,0,0,1,20.4453,36.623Z" style="fill:#2d1c0e"/><path d="M27.39551,49.99505a10.70327,10.70327,0,0,0-5.66511-3.0557c-.1972.1143-.3496.1533-.2734.4072.8916.5899.6631,1.7998,1.0859,2.5743-.23039,1.2832,1.3223,1.5771,1.709,2.5683a5.04038,5.04038,0,0,0,2.2129.2588,1.79535,1.79535,0,0,0,.8535-.6963C27.0478,51.28015,27.8584,50.618,27.39551,49.99505Z" style="fill:#2d1c0e"/><path d="M18.85151,48.52235a7.414,7.414,0,0,1-2.44531,1.0655c-.2353.1142-.5039.333-.7012.333-.6562.3261-1.4326.3261-2.0127.8076a.7756.7756,0,0,0-.8574.2549l.0791.0732c-1.2431.1865-2.56349.9229-4,1.1045-.1914.1084-.583.3281-.7363.1445-.11819,0-.2363-.0722-.3106.0762,0,.0342,0,.1455.0743.1816.3086.0762.3086.4043.2705.6622.2343.2207.3525.6259.7021.6582a1.89431,1.89431,0,0,0,1.709.8486c1.0049-.6611,2.1758-1.3233,3.2607-1.9844.9336-.8457,2.3252-1.2119,3.30181-2.0928.26859-.1113.584-.4082.96969-.4082a3.97241,3.97241,0,0,0,2.2481-1.9824C19.97851,47.67665,19.2793,48.22745,18.85151,48.52235Z" style="fill:#2d1c0e"/><path d="M32.5,65.50775c-.3516.1572-.4073-.2627-.73249-.1836-.26461-.4463-.82321.1318-1.06051-.3135-1.0264.1055-1.876-.5781-2.8486-.5244-.6456-.29-1.0811.0791-1.5831.2383a3.18049,3.18049,0,0,1-2.7002,1.4677,12.09241,12.09241,0,0,1-2.1718.501c-.5313.2637-1.1729.2891-1.7071.5235a1.3002,1.3002,0,0,1-.6123-.1289c-.1201-.211-.4433-.3428-.3252-.6358.294-.0215.1807-.3642.4092-.4209-.084-.2041.0918-.5752.1787-.8349.4991-.6602.4991-1.5782,1.1455-2.126a19.6098,19.6098,0,0,1,2.1719-.1055l.2041-.1865a1.6489,1.6489,0,0,1,.7637-.5752c.2676-.1826.46971-.4463.2949-.7315a2.12845,2.12845,0,0,0-1.999-.4765c-.3496-.0508-.6719.2881-.99419.0273-.23431-.292.17679-.5029.26269-.7363.32331-.4697-.1738-.7578-.1181-1.1787-.0274-.3418-.3203-.71-.35259-.9453-.34861-.5528-.29-1.6592-1.37891-1.5225a1.90407,1.90407,0,0,0-2.0566,1.0479c-.3164.2353-.8193.0771-1.1191.3154a.68109.68109,0,0,0-.169.5254c.9717.707.5879,1.9414.79,2.8838a1.16045,1.16045,0,0,1-.8232.9443c-.7598.0313-1.1426.5293-1.8477.6084a1.73835,1.73835,0,0,1-1.5576.2861c-.498.3672-1.0244-.3652-1.5234.1319-.0859.3418.3213.4199.5264.6299a28.205,28.205,0,0,1,2.70311,1.2324c.38079.1035.93939-.0215,1.26269.0791a4.987,4.987,0,0,1-.5293,1.6025,16.41188,16.41188,0,0,0-1.1143,1.5235l-.0302-.0528a8.13084,8.13084,0,0,1-1.7618.5244c-1.1425.3155-2.4365.3926-3.5224.8135-.5283-.0254-.8819.3672-1.3838.4199-.17289-.1289-.46289-.288-.4404-.5761-.23149.0791-.292.3447-.4102.5761a1.23335,1.23335,0,0,1-1.1758,0c-.2344-.1543-.6767.1329-.789-.2314-.5596.0225-1.2618-.3721-1.587.2314-.791.0801-1.2656-.5244-1.93649-.4687C.5566,69.92375,0,70.00085,0,70.44625c.5566.7373,1.4384.9941,2.0546,1.7324a4.54907,4.54907,0,0,0,.7334.8926,1.34042,1.34042,0,0,1,.5879.5273,1.931,1.931,0,0,0,1.64361-.2949c.64649.1113.97069-.5225,1.64349-.5469.4414-.3184.94051-.4473,1.3829-.7637.7617,0,1.2304-.5752,1.9941-.5752.5264-.2636.9678.4961,1.43651-.0283.26949-.3945.67969-.4492,1.14259-.5801l-.0557-.0527c.1504-.2871.502-.1279.6475-.3652.2363-.1328.6777-.0235.85161-.2891a4.64873,4.64873,0,0,0,1.40909-.5742c1.6446-.3164,2.9366-1.3936,4.669-.8438.37991-.3418.8818-.2871,1.4072-.4199.9111.211,1.7315-.3642,2.6436-.417.5019.0528.7353-.5215,1.3232-.3935.5225-.1065.9971-.6817,1.5498-.4717a3.3244,3.3244,0,0,1,.794-.1895c.4736.1895.82511-.1787,1.2646.1338a4.59427,4.59427,0,0,1,1.3232.1612c.7608.4453,1.4112-.0577,2.1729-.1866.2578-.1816.5586-.4492.52441-.7636C33.1181,65.82705,32.707,65.72065,32.5,65.50775Z" style="fill:#2d1c0e"/><path d="M27.8867,71.88665a19.78118,19.78118,0,0,1-2.8438-.0752c-.8232-.2637-.3828-.9453-.5859-1.4199-.4697-.5244-1.14549-.419-1.7324-.6563a14.54787,14.54787,0,0,1-2.4356-.7578l-.3242.709c.084.416.585.4453.9072.6016,1.5264.0517.5889,1.5986.9092,2.2343a17.43827,17.43827,0,0,1-4.3389,1.2569c-.9716.1845-1.58979.5771-2.5019.7588-.4658.0273-.9082-.1543-.9375-.6045-.499-.3916-.5869-.8623-1.2637-.9981-.29.2402-.1201.4492-.1758.7647a1.43121,1.43121,0,0,1-.0312,1.4218l-.0576-.0537a1.24871,1.24871,0,0,1-.583.4717,15.3019,15.3019,0,0,0-1.7364.4219A5.44091,5.44091,0,0,1,8.60351,75.54c-.295.1533-.62011-.3203-.82231,0-.2344.1299-.0635.3643.02731.5234.61919-.0761.76569.4766,1.29109.6016a7.09838,7.09838,0,0,0,.9404.3447c.4687-.0761.499.4209.9404.5215.3526.2901.0274.71.2617.9756a2.69392,2.69392,0,0,0-.2617,1.418c.0879.3134,0,.6777.2324.9433.8223.0498,1.004.8125,1.6758,1.1006.1768.2666.3223.4199.4698.6611.289.6504.70411,1.2579,1.0263,1.8838.3565.4776.67481,1.2608,1.5254,1.1377.6797.4395,1.1768,1.0157,1.8486,1.5186.6202.417,1.6446.417,2.17681,1.0224,1.11519.7618,1.93159-.6562,2.90429-1.08a8.53347,8.53347,0,0,0,1.1475-2.4141c-.1475-.0801.0283-.207.11421-.2861-.02441-.0791.03319-.209-.05761-.2627a2.91642,2.91642,0,0,0,.26461-1.628,6.30946,6.30946,0,0,1,.05769-2.4433c.2939-.208-.05769-.6289.1484-.8623.08691-.2149.3232-.709,0-.9473.2656-.7109-.1484-1.4971.0586-2.2051-.0303-.7636-.293-1.7343.6475-2.2285a13.88693,13.88693,0,0,0,1.46681.0489,3.21239,3.21239,0,0,0,2.64249-.5801c.3819-.2871.2041-.709-.1172-.9727C28.7978,72.04775,28.27051,72.208,27.8867,71.88665Zm-5.8076,6.1465-.0909.1045c-.17869.6836.1455,1.2597-.1211,1.8369a4.81636,4.81636,0,0,1-.2558,1.5722c-.4424,1.0254-1.5322.9746-2.4707,1.4209-.3223.0293-.7324-.1328-.9688.1319-.7949.2373-1.4062-.3692-2.1152-.4219-.2617-.3936-.9697-.21-1.2012-.5264-.3808-.5761-1.79-.7841-1.3213-1.7041a8.35255,8.35255,0,0,1,1.4063-1.417c1.2305-.4492,1.001-1.4726,1.0283-2.414l.29-.4766c.5332.1348.4454-.5723.9717-.3125.5625-.2598,1.1485-.4238,1.7334-.6328.6465.0254,1.1153-.6562,1.76171-.417.44339,0,1.32329-.3662,1.35359.3936A22.55507,22.55507,0,0,0,22.0791,78.03315Z" style="fill:#2d1c0e"/></g></g></svg>