<svg xmlns="http://www.w3.org/2000/svg" viewBox="0 0 108.7121 37.36922"><g id="レイヤー_2" data-name="レイヤー 2"><g id="レイヤー_1-2" data-name="レイヤー 1"><path d="M28.99519,1.41763a23.71614,23.71614,0,0,1-1.6885,4.1474c.0532.4229-.54839.6065-.4507.9776a19.3504,19.3504,0,0,0-1.4399,3.0683l-.1509.1905c.1509.376.6548.2373.8916.1465a22.4434,22.4434,0,0,0,2.9404-1.375l.0977.0976a6.32051,6.32051,0,0,1,1.6953-.4297c.9477.4297,2.1924.7617,2.643,1.7979,0,.7519-.6547.9404-.9545,1.6045-.69,1.1728-2.1368,1.3603-2.9332,2.4384-1.34219.5694-2.4433,1.7051-4.0341,1.7461-.3902-.5127.3462-.8427.4575-1.414.3901-.1348.4878-.7031.8848-.9405l-.0977-.0439c.3462-.5176,1.0498-.9902,1.1475-1.6465-1.1914-.4277-2.0835.9356-3.0845,1.2207a2.97391,2.97391,0,0,1-2.4898.9922c-.5546-.7598-.4526-1.4189-.8588-2.2129.353-2.4043,1.9018-4.1035,2.8032-6.3203a15.44289,15.44289,0,0,0,1.4931-4.7051c.5923-.1875,1.2891-.706,2.083-.4248A2.64308,2.64308,0,0,1,28.99519,1.41763Z" style="fill:#2d1c0e"/><path d="M25.81349,17.70663c.8477-.2734,1.3052.8067,2.0484.9903.1416.4805.7431.7597.5478,1.3701-.7568.6641-2.3921.6104-3.2422,1.4141a11.09414,11.09414,0,0,1-3.0469.9453c-.5947-1.1797,1.542-1.5586,1.5909-2.5918,1.456-.378-.34619-3.5322,1.8999-2.3115Z" style="fill:#2d1c0e"/><path d="M33.53319,22.61293c.6875.2314.5992,1.084.4483,1.6016-1.6514,1.1337-3.0308,2.4941-4.9863,3.3447a17.72092,17.72092,0,0,1-3.8277,2.8779l-.353.3242a20.49119,20.49119,0,0,0,2.0415.2813v.1445a17.38541,17.38541,0,0,1,3.7368,1.4531,2.8122,2.8122,0,0,1,.7481,2.2676,4.295,4.295,0,0,1-1.8975.6104,2.75757,2.75757,0,0,1-2.03909.3418c-.54831-.4366-1.48431-.7666-.99171-1.5166.3018-.1416.1949-.5186.09771-.7041-.94341-.8965-2.69431-.5176-3.68851-1.3213-.3926.1836-.5942-.3301-.8452-.5274a2.07114,2.07114,0,0,1,.5015-2.3525c1.1845-.0908,2.0859-1.124,2.938-1.6885.894-.8066,2.1435-1.6055,2.5336-2.6855a4.93273,4.93273,0,0,0-1.2353.5625c-.5015.2343-1.103.2343-1.4492.706l-.0977-.0908a4.86624,4.86624,0,0,1-4.7329-.1894c-.54829-.2374-.3994-.8536-.4507-1.1739.1485-.1465.4507-.0488.6455-.1015l.2554.2871c3.0288-.8907,5.3281-2.166,8.2124-3.3018,1.3447.1904,2.6338-.4697,3.73.5664Z" style="fill:#2d1c0e"/><path d="M16.79739,6.83073a4.34671,4.34671,0,0,0-2.146-.9444c-.4897-.6972-1.3935-.3213-1.8857-.9414.3969-1.1777,1.6909-2.1113.8964-3.3418-.5527-.5693-.6992-1.6914-1.6953-1.5976-.4463-.0508-.3994.4668-.6504.5644.0533.2852-.03709.6055.0997.8477-.44579.8984-1.5445,1.8789-1.7906,3.0654-.6968.2783-.2925,1.2686-1.1474,1.5977A20.83511,20.83511,0,0,1,6.8853,9.28283a5.95051,5.95051,0,0,0-.79441,1.4082c-1.4913,2.0274-2.441,4.1973-4.0318,6.1729A3.14052,3.14052,0,0,0,.2613,18.652a4.64361,4.64361,0,0,0,.102,3.2519c.40189-.0488,1.09619.1953,1.44-.2275.25579-.1026.70409-.3838.90569.0859a13.6529,13.6529,0,0,0,.9409,1.9346l.0997-.0977c.2509.6602,1.0546.6153,1.4472.7578-.4507.375-.6479,1.0352-1.10349,1.2696a2.7333,2.7333,0,0,0-.44341,1.6074c.648.2324,1.29841.6973,1.9971.5156.7944.2793-.1509.8457-.1064,1.3633a4.868,4.868,0,0,0-.6436,1.1797c-.5991.376-.5015,1.2314-1.1474,1.6045-1.5464.372-.98929,2.0234-1.2422,3.1103.4526.6963.2968,1.7862,1.0937,2.2012.3018.0537.7944.249,1.0449,0l.1978.1514c.10451.0468.1553-.0977.24851-.1514.44829.1514.94729-.2314,1.24469-.3711l.1044.0947c.2022.0957.2998-.1386.44391-.2295a8.21362,8.21362,0,0,0,4.43109-3.3076c-.03709-.4248.5528-.5595.3995-.9795,1.0962-1.5586,1.14741-3.4424,2.1948-4.998,0-.9922.7407-1.6465.7407-2.6406.0557-.42-.144-.9903.1533-1.3164-.1533-.753.7012-1.3614.4551-2.1163-.2017-.0976-.3086.1368-.4551.2295a.20591.20591,0,0,0,.1021.1885.61383.61383,0,0,0-.4502.6641c-.7945,1.6494-1.9419,3.247-2.7407,4.706a.2449.2449,0,0,1-.43659-.1347c.39459-.9453,1.08689-2.2207.43659-3.1133-.042-.4688-.042-.8965.3462-1.1768-.1929-1.5586,1.7441-1.6513,2.4873-2.5478-.1998-.4199.102-1.0801-.6387-1.2676a2.92418,2.92418,0,0,1-1.5957-.7461,3.23186,3.23186,0,0,0-.7945-2.1299c.4971-.9404,1.7374-.5127,2.0347-1.6025.251-1.4531-1.3398-1.124-2.1391-1.791l-1.6885.0957c-.2554.0507-.4966.2851-.7012-.0957-.24609-.3223.0532-.6524.353-.8887a26.54625,26.54625,0,0,1,2.3877-4.5703c.9429.5156-.6015,1.3183-.0512,2.1191.455.4697.9057-.2344,1.3935.0957,1.1006-1.04,2.794-.5713,3.939-.6113C17.587,8.20373,17.04839,7.402,16.79739,6.83073Zm-7.0698,21.6709c.3462.2422.6948-.2364.8921.2422-1.3423,1.83-2.6382,4.4687-5.27439,4.8496.09269-.8965,1.14939-1.6494,1.63719-2.4063A29.8667,29.8667,0,0,1,9.72759,28.50163ZM9.1773,17.80923c-.19731.5185.20209,1.3682-.69921,1.6006a18.40093,18.40093,0,0,1-4.4263,1.414c-.1997-.5195-.8457.0928-.7481-.5664.7481-.75.9942-1.8379,2.04161-2.3066.64789-.8057.94279-1.8858,1.98579-2.4473l.1553.1895c.1513.7021-.9917,1.3125-.3506,1.8301C7.93019,17.902,8.729,16.63443,9.1773,17.80923Z" style="fill:#2d1c0e"/><path d="M42.74909,23.64123a7.3783,7.3783,0,0,0,3.1884-.6621c.7969.4297-.05319.9912.1954,1.5127,1.7998,1.2676,3.2397-.7529,5.1303-.9043.0508.1514.2554.1514.353.2422a2.28743,2.28743,0,0,1-1.0961,2.3086c.0971.6592,1.1333.7051,1.5463,1.2744l.0977-.0977c.1953.2325.4927.1885.8013.2325,2.48291-.9405.541-3.667,2.3852-5.084,1.3936-.4209,2.6382-.4736,4.0279-.8447.9433-.5157,2.6386-.8506,2.6386-2.0254-.2461-1.4121-1.8906-.7012-2.6386-1.461-.0538-.1445.1572-.1836.1015-.332a34.09048,34.09048,0,0,0,3.3311-1.9258c.69821-.334.8935-1.2236,1.6953-1.3652a5.35847,5.35847,0,0,0,1.2451-2.1231h.0977c.6445-.9922-.4922-1.6953-.8926-2.4453a10.76932,10.76932,0,0,0-7.6201-.5176c-.4507,0-.6529-.5703-.5459-.8437-.69929-1.1777.4482-2.5498-.69929-3.5898h-.20161c-1.1987-1.1758-2.6851-.5137-4.2735-.5645-.6552.2832-.4042.8906-.353,1.3721a1.136,1.136,0,0,0,1.147.7451c.6528.9941.2998,2.6455.2466,3.9121a9.76173,9.76173,0,0,1-3.18649,1.3115c-.69.1924-1.73981,0-2.086.5244,1.09669.8946,2.38529,1.791,3.92969,1.4639,1.3428.6592.5947,2.3545.8945,3.3906-.34619.8916-1.4936.8037-2.0415,1.6026-.7944-.1934-.69669.5644-1.0942.9472-.5918.4649-1.5371.1309-2.2876.2256-.75-.1396-.75-.8916-1.103-1.3662a10.40767,10.40767,0,0,1-1.5816-3.3926c-.0537-.709-.8476-1.2187-1.3515-1.5937-.3531-.1924-.1954-.7539-.7481-.7539.11131.6562-.7895.9863-.9009,1.5996a10.44152,10.44152,0,0,0-.3437,4.9453c.79391.8379.5015,2.2197,1.2446,3.0137C41.80569,22.89023,42.50249,23.21643,42.74909,23.64123Zm14.3921-11.3506a11.82839,11.82839,0,0,1,3.5869-1.6972,2.2405,2.2405,0,0,1,1.8877.1875c0,1.5566-2.1504,2.3574-3.3887,3.3007-.5479.7989-1.4932.9405-2.23679,1.459A7.88658,7.88658,0,0,1,57.14119,12.29063Z" style="fill:#2d1c0e"/><path d="M66.0533,29.43813c-2.19241-1.9346-4.337-3.4912-7.26961-3.918-.2558.1455-.44139.1973-.3437.5205,1.1377.7569.8447,2.3106,1.3867,3.2998-.291,1.6514,1.6953,2.0254,2.1904,3.293a6.36689,6.36689,0,0,0,2.836.3369,2.31617,2.31617,0,0,0,1.1025-.8965C65.60309,31.08953,66.646,30.23693,66.0533,29.43813Z" style="fill:#2d1c0e"/><path d="M55.0953,27.54753A9.46558,9.46558,0,0,1,51.96,28.91763c-.3066.1465-.646.4228-.9014.4228-.83829.4209-1.8344.4209-2.5776,1.0381a.98661.98661,0,0,0-1.09669.3272l.09769.0937c-1.59769.2363-3.293,1.1817-5.1304,1.419-.23929.1347-.75.415-.94529.1836-.14841,0-.30621-.0977-.397.0966,0,.045,0,.1885.09079.2325.4038.0976.4038.5205.3526.8525.2998.2813.4507.7969.8989.8428a2.429,2.429,0,0,0,2.1904,1.0869c1.291-.8477,2.7984-1.7022,4.1851-2.543,1.1933-1.0869,2.977-1.5508,4.2383-2.6846.33691-.1416.7412-.5244,1.2378-.5244a5.103,5.103,0,0,0,2.8847-2.5429C56.53519,26.46543,55.64309,27.17343,55.0953,27.54753Z" style="fill:#2d1c0e"/><path d="M107.96439,10.357c-.4043.1807-.4707-.3046-.8477-.2089-.3066-.5186-.9521.1484-1.2285-.3653-1.1933.1211-2.1758-.6738-3.3008-.6113-.7558-.3359-1.2539.0937-1.8388.2773a3.7006,3.7006,0,0,1-3.1328,1.7041,14.19775,14.19775,0,0,1-2.52249.5811c-.61331.3037-1.35551.3359-1.97851.6035a1.54658,1.54658,0,0,1-.7129-.1504c-.1348-.2441-.5117-.3926-.374-.7344.3437-.0234.209-.4199.4785-.4882-.1045-.2364.1045-.668.2021-.9707.5782-.7618.5782-1.8272,1.3282-2.4639a23.01984,23.01984,0,0,1,2.5195-.1201l.2422-.2188a1.85658,1.85658,0,0,1,.8847-.666c.3067-.2148.5459-.5185.336-.8476a2.45762,2.45762,0,0,0-2.3164-.5557c-.4043-.0606-.7813.3349-1.1543.0342-.2637-.3379.209-.5821.3056-.8565.376-.5439-.1943-.876-.13369-1.3681-.03131-.3965-.377-.8243-.40431-1.0957-.4141-.6436-.3399-1.9239-1.6075-1.7608a2.20032,2.20032,0,0,0-2.3847,1.2149c-.3672.2685-.9532.0908-1.2969.3623a.778.778,0,0,0-.1953.6132c1.125.8174.6836,2.25.916,3.3438a1.35018,1.35018,0,0,1-.9531,1.0937c-.8848.0352-1.32819.6153-2.1455.7071a1.97827,1.97827,0,0,1-1.7998.3242c-.586.4326-1.1934-.416-1.7696.1582-.1054.3945.3731.4883.6055.7314,1.1191.3096,2.042,1.0059,3.1357,1.4288.4434.121,1.0889-.0254,1.4629.0957a5.76794,5.76794,0,0,1-.60839,1.8554,17.542,17.542,0,0,0-1.29591,1.7676l-.03709-.0605a9.40322,9.40322,0,0,1-2.042.6054c-1.32611.3692-2.81831.46-4.08691.9453-.6084-.0322-1.0195.4258-1.5986.4854-.2012-.1514-.541-.334-.5176-.669-.2695.0977-.33589.4024-.4707.669a1.42475,1.42475,0,0,1-1.36619,0c-.26861-.1807-.78711.1582-.915-.2666-.64261.0234-1.461-.4317-1.84571.2666-.90629.0928-1.461-.6084-2.2422-.543-.336.2764-.9825.3623-.9825.8799.6465.8594,1.6661,1.1592,2.3789,2.0137a5.72613,5.72613,0,0,0,.8458,1.0312,1.56178,1.56178,0,0,1,.6914.6114,2.24982,2.24982,0,0,0,1.90431-.3379c.75.123,1.125-.6075,1.90429-.6358.51171-.3721,1.0898-.5185,1.6054-.8896.8779,0,1.4258-.6602,2.3106-.6602.6152-.3086,1.1269.5703,1.666-.0342.3144-.4599.7871-.5205,1.3281-.6728l-.0605-.0654c.164-.335.57811-.1465.74311-.4229.27639-.1562.78709-.0234.98929-.334a5.3148,5.3148,0,0,0,1.63471-.6719c1.90429-.3642,3.40429-1.6093,5.41609-.9726.4414-.3975,1.0273-.332,1.6347-.4863,1.0508.2441,2.002-.4239,3.0586-.4844.586.0605.8574-.6065,1.5381-.458.6084-.1182,1.1572-.7871,1.7998-.544a3.67219,3.67219,0,0,1,.9238-.2207c.54691.2207.9532-.206,1.461.1543a5.3595,5.3595,0,0,1,1.5312.1836c.8848.5176,1.6446-.0605,2.5293-.2168.293-.207.6426-.5176.5996-.8828C108.68509,10.72813,108.20659,10.609,107.96439,10.357Z" style="fill:#2d1c0e"/><path d="M102.61869,17.75353a22.73978,22.73978,0,0,1-3.3008-.084c-.9551-.3066-.4502-1.0957-.6758-1.6484-.54779-.6084-1.3359-.4854-2.0117-.7598a16.74575,16.74575,0,0,1-2.8262-.8798l-.3828.8222c.1045.4834.6826.5156,1.0586.7012,1.7696.0557.6807,1.8486,1.0567,2.5889a20.36656,20.36656,0,0,1-5.0323,1.457c-1.1338.209-1.8466.6709-2.91009.8799-.53221.0302-1.043-.1787-1.08011-.7012-.5781-.458-.6826-1.001-1.4697-1.1592-.3301.2832-.1348.5235-.1953.8897a1.65252,1.65252,0,0,1-.045,1.6513l-.0683-.0644a1.4344,1.4344,0,0,1-.6738.543,19.19437,19.19437,0,0,0-2.01179.4882,5.84469,5.84469,0,0,1-1.79981-.4882c-.3437.1816-.7197-.3672-.9599,0-.2686.1533-.0664.4277.0381.6083.7197-.0859.8847.5557,1.4931.7012a9.246,9.246,0,0,0,1.0938.3975c.541-.086.5781.4902,1.09571.6055.40429.3349.03119.8222.30079,1.1318a3.0447,3.0447,0,0,0-.30079,1.6416c.09759.3672,0,.7871.26949,1.0937.9531.0606,1.1641.9454,1.93551,1.2803.211.3037.376.4834.54789.7686.3369.75.8174,1.456,1.1914,2.1836.4131.5498.7803,1.4629,1.7725,1.3183.7871.5069,1.36321,1.1778,2.1425,1.7627.72071.4834,1.9073.4834,2.5206,1.1846,1.2978.8877,2.24311-.7637,3.3769-1.2471a10.22167,10.22167,0,0,0,1.32621-2.8056c-.17191-.0948.03029-.2432.13469-.3292-.0302-.0957.0391-.2441-.0673-.3046a3.42607,3.42607,0,0,0,.2988-1.8907,7.49537,7.49537,0,0,1,.0703-2.8349c.3369-.2403-.0703-.7276.1719-.9971.1045-.2549.374-.8242,0-1.0986.3135-.8291-.1719-1.7364.0674-2.5616-.0372-.8818-.337-2.0107.7568-2.5849a16.07775,16.07775,0,0,0,1.6953.0586,3.73216,3.73216,0,0,0,3.0684-.6699c.4414-.336.2392-.8243-.1348-1.1329C103.6753,17.93913,103.06009,18.12753,102.61869,17.75353Zm-6.7363,7.1328-.1055.1182c-.209.792.1641,1.4609-.14259,2.1338a5.41691,5.41691,0,0,1-.29881,1.8183c-.5117,1.1944-1.7695,1.1338-2.86619,1.6524-.374.0342-.84871-.1533-1.11721.1523-.9229.2744-1.63579-.4297-2.4522-.4873-.3095-.4599-1.1337-.2509-1.3964-.6103-.4414-.6719-2.07619-.9102-1.53719-1.9766a9.78556,9.78556,0,0,1,1.628-1.6465c1.43259-.5205,1.17089-1.7099,1.20019-2.8066l.3301-.5449c.623.1552.5253-.6621,1.1308-.3653.6524-.2968,1.33591-.4873,2.0117-.7314.75.0303,1.2989-.7617,2.0489-.4805.5078,0,1.52731-.4345,1.5664.4551A24.447,24.447,0,0,0,95.88239,24.88633Z" style="fill:#2d1c0e"/></g></g></svg>