<svg xmlns="http://www.w3.org/2000/svg" viewBox="0 0 210 675.93945"><g id="レイヤー_2" data-name="レイヤー 2"><g id="レイヤー_3" data-name="レイヤー 3"><g id="レイヤー_2-2" data-name="レイヤー 2"><path d="M60.973,14.4247l.46192.79113,3.02154,9.41538S70.14106,33.578,84.557,35.00136s41.87909-6.72309,41.87909-6.72309L156.973,18.4247s.42529-10.6709-13.78033-12.3953a10.715,10.715,0,0,0-5.81134.55225,51.68145,51.68145,0,0,0-7.85572,6.28122c-3.55261,3.56183-34.73083,9.99545-36.64172,9.77865s-13.96173,2.36481-22.93634-2.426C63.973,15.4247,60.973,14.4247,60.973,14.4247Z" style="fill:none;stroke:#fff;stroke-miterlimit:10"/><path d="M83.973,56.4247s-2.418,10.19418,3.291,11.59707,20.709-4.59707,20.709-4.59707L120.8332,57.219a16.54754,16.54754,0,0,1,11.20166.65924C137.973,60.4247,137.973,65.4247,137.973,65.4247s-.10345,3.01342-4.05176,4.00671-15.98272,6.5047-15.98272,6.5047L98.19972,86.70937,64.973,104.4247s5.14087-6.19232,10.07044-9.09616S86.973,82.4247,86.973,82.4247,77.79,72.42677,76.86024,70.379c-.88727-1.95434-3.1294-8.57834-.50824-10.26635A58.59212,58.59212,0,0,1,83.973,56.4247Z" style="fill:none;stroke:#fff;stroke-miterlimit:10"/><path d="M38.973,118.4247s0,7,2,7,34.109-8.84455,39.55451-8.92231,16.68109-5.67758,45.56329-4.87762,30.8822-.20007,46.8822,1.79993c8-2,11.70715-.49372,11.70715-.49372l10.91657,6.45557s6.65485,5.70593,7.51556,7.372,2.86072,5.66614-4.13928,7.66614c-8-2-11.41675-4.0044-11.41675-4.0044s-16.83148-5.2417-17.70733-5.11865-9.076-2.719-22.976-3.298c-12.8999-1.57892-42.02172-.08326-44.46081,1.16888-3.43909.25214-36.58692,9.10254-36.58692,9.10254L47.7602,138.6017l-6.37811,4.402s-5.22443.37274-4.81677-.60315-14.0622-4.51282-14.0622-4.51282S15.973,136.4247,18.973,129.4247c5-4,7.54743-4.83222,7.54743-4.83222Z" style="fill:none;stroke:#fff;stroke-miterlimit:10"/></g><path d="M14.51367,262.10059a25.22435,25.22435,0,0,0,20.56581,4.90789c12.46842-2.3584,19.96485-3.88,22.05442-4.80007s14.27462-4.66852,14.628-4.78857,12.21343-4.14053,18.45981-4.39671,16.76934-2.6964,19.35005-3.08948,24.52464-1.17392,27.201-2.16319,32.67573-.63926,32.67573-.63926,4.62878.685,7.43341-4.36337c5.63123-3.05313,15.85911,1.09744,15.85911,1.09744s14.72577,4.87067,15.218,12.955c-1.5861,7.00362-10.57247,6.95814-10.57247,6.95814l-8.14823-3.11829-9.37741-2.37944-16.81315-1.542-25.00437.411-29.44667,2.55044v.71972l10.096,7.05951s3.16936,2.72521,2.19445,5.56216c-2.0466,1.85169-6.05118,4.65958-6.05118,4.65958s-5.82693,10.69208-18,24.71973a144.68765,144.68765,0,0,1,17.66916-5.35954c1.96626-.29114,12.33181-1.84066,12.33181-1.84066l4.79981-1.67968s23.22736.27911,26.16113,19.20019c-2.754,1.6682-3.22748-.28444-4.71929,8.77794-.75268,9.31142-2.72114,58.9037-2.72114,58.9037l.70788,15.92616-.72063,8.83886-4.06733,5.71545s-5.06967,1.8717-7.81955-3.74466-7.781-16.65573-7.781-16.65573a9.53546,9.53546,0,0,0-10.9811-3.04221c-7.13236,1.63163-13.38974,3.186-13.38974,3.186a34.0713,34.0713,0,0,0-7.22025,3.23939c-3.65679,2.206-6.45908.35776-7.85315-.6642s-6.703-4.99937-7.80024-10.12634a25.91907,25.91907,0,0,1,3.70038-9.70868l7.6727-12.69848,7.60251-9.5851,3.95611-6.0822s.45234-.79631-.64816-1.79849-8.89727.81553-16.47155-8.9888c7.88888-1.57394,2.07116-.1323,2.07116-.1323l14.0989-4.22182a21.06486,21.06486,0,0,1,14.107,3.43963c6.87542,4.66121,6.38891,4.88865,7.50509,8.59915-1.88646,3.08743-2.83014,4.42425-2.83014,4.42425a9.5269,9.5269,0,0,0-6.91869,2.74734c-2.93545,3.02346-18.36321,14.459-18.36321,14.459s-4.58715,4.92667-5.26749,9.6973c-1.83441,4.05715.0755,5.74688.0755,5.74688s.14655.92859,5.04357-.21209,8.39028-1.95795,8.39028-1.95795l21.03013.02445,4.41807,3.13243s3.74821,1.8831,4.60528-4.90912,1.87693-6.62061.72793-14.83059c.1742-8.29075,1.37972-47.259,1.37972-47.259a8.62932,8.62932,0,0,0-9.12109-6.71973l-2.87988-.24024-6.69789.73628-23.27765,5.69968-8.10355-.65727-8.96193-3.61853s9.59119-8.64437,12.12622-13.95515,9.60026-22.47764,8.99487-26.60637c-2.35372-4.00909-2.88086-5.04-2.88086-5.04a18.80875,18.80875,0,0,0-6.30373.01089c-3.84951.56787-27.05662,8.14926-27.05662,8.14926s-16.31966,7.26557-20.333,8.86227c-3.01217,2.72256-5.239,4.93447-5.239,4.93447s-4.6845,5.33061-11.51858.62231c-8.11579-3.934-12.51264-6.06014-12.51264-6.06014l-6.6025-1.835s-3.42338-.30483-2.59609-5.51464C8.09529,267.77285,14.51367,262.10059,14.51367,262.10059Z" style="fill:none;stroke:#fff;stroke-miterlimit:10"/><path d="M70.19531,303.38086s-5.59551,72.81107-2.87988,82.80273C64.915,395.427,64.915,396.92348,64.915,396.92348s.00677,4.45306,3.60058,6.30015c2.87989,3.36035,5.81575,7.23264,9.36036,7.2002,2.79639-2.36023,2.6181-3.36214,2.6181-3.36214l-2.03979-46.13418s.16412-14.30916,1.52364-21.62092c.27941-7.72993,1.05554-16.87231,1.05554-16.87231s-.47866-7.42263-1.50064-9.73862S70.19531,303.38086,70.19531,303.38086Z" style="fill:none;stroke:#fff;stroke-miterlimit:10"/><path d="M79.7959,466.09961l3.12012,4.37853,4.2989,2.80417a4.35043,4.35043,0,0,1,1.21828,5.51191c-1.61052,3.56461-5.618,10.39422-6.77253,10.85905-1.62551,1.88677-12.11524,13.53016-12.11524,13.53016a23.9537,23.9537,0,0,1-10.959,5.98115c-2.88006.357-3.36889.45114-3.36889.45114s-3.06634,1.00494-2.41914,7.81717c.43936,1.741,1.01541,2.056,1.01541,2.056l1.905,1.26244,4.04639,4.82859,2.51026,1.72087a4.92144,4.92144,0,0,0,2.87988,3.12012A33.10877,33.10877,0,0,0,70.81881,527.66l3.85579-.76814,9.29223-3.272,10.96509-3.69542,11.16678-3.72921,5.53457-2.42421,2.00345-.15a4.03979,4.03979,0,0,1-.87394,2.28078c-.84072.97683-6.58951,5.37951-6.58951,5.37951s-13.33987,8.53079-14.3907,10.09109c-1.859,1.2564-13.95826,8.86237-13.95826,8.86237l-7.14853,3.86672-1.20019-.48047-.99939,1.73183s-1.60493,3.56549-1.10215,5.6931,1.16057,5.49715,5.27577,8.15748c3.40386,2.99731,3.78573,3.37853,3.78573,3.37853l3.36035,1.43945,5.64454-3.06455,5.239-1.22,12.97023-4.30784,11.66679-3.16737.28652,9.18848.42964,8.739-.71616,11.83329-10.9558,3.77154-9.86632,3.89566L87.394,592.70731,48.24714,609.36622l-9.9398,3.49641s-5.39786,3.65024-6.51242-7.5599c-6.04434,4.46319-13.44043,10.56055-13.44043,10.56055l-.96,3.12012s2.19814,7.32038,5.13708,7.23218c3.023.82656,5.903,1.6477,5.903,1.6477l7.14379,3.94266,3.656.37765,47.041-27.84082,21.34339-9.23138,7.21716-2.76862-.70508,45.41827-.31751.97371s-4.38411,3.08492-3.21625,12.73875c.958,4.11981,2.19635,8.37328,2.19635,8.37328l1.84178,8.29847s1.57739,3.64394,3.80129,4.83913c2.80586-.46752,7.47958-2.40684,7.85264-5.01719.37887-2.6929.68493-6.71625.68493-6.71625l.58255-1.707-2.01681-48.4892s-.23811-18.24214.33712-20.87213c1.67969-.4504,16.9495-4.41321,16.9495-4.41321l32.73117-3.26746,7.43692.15987,17.19639,3.60972,5.84707-1.32987s6.18807-1.47142.518-8.43655c-7.11107-5.85667-23.15276-9.773-23.15276-9.773a6.71723,6.71723,0,0,0-4.48528-.07c-1.08879,1.7998-1.46745,4.755-8.89884,5.08182s-12.67615.60364-12.67615.60364l-20.103,3.483-9.95644,2.59128-1.40659-1.43946.4795-2.64062-.2196-11.32867.34907-11.13014a4.33413,4.33413,0,0,1,3.08263-4.08146c3.10861-.91442,13.16209-4.64955,13.16209-4.64955s9.99011-3.64613.18124-9.16347c-4.59906-2.41363-7.98861-2.004-7.98861-2.004l-2.32659,2.27621-6,1.91992-.48047-4.31933,2.88086-18.001L132.9,511.549l13.0723-4.10336,7.89806-3.09113,4.373-1.6022s3.31905-.95331,3.4733-3.0212.2517-3.6557-.583-4.27886a17.83176,17.83176,0,0,0-2.343-1.34367l-5.64435-1.96163-4.82854-1.76267-3.7976-.68187-.40306.39719h-1.34278a11.53134,11.53134,0,0,0-2.25781,5.28027c-3.32533,1.462-7.43945,2.88086-7.43945,2.88086L131.15723,499.46l-53.042,12.001s13.45546-9.94231,16.94334-15.2269l6.57717-7.57388,8.27015-7.7129s2.44929-2.6097-.00734-6.23842-15.75827-10.76939-15.75827-10.76939H90.898L84.827,465.50133Z" style="fill:none;stroke:#fff;stroke-miterlimit:10"/><path d="M114.83594,525.38086s.59722,12.18714-.23926,14.40039S89.354,547.68266,89.354,547.68266l-6.438.499,3.946-4.70821,1.81375-1.29179,7.21034-6.92109Z" style="fill:none;stroke:#fff;stroke-miterlimit:10"/><path d="M58.6748,567.1416l4.19678,6.4317s1.8069,2.64818,4.01209,3.15937,2.49007,3.98322,2.49007,3.98322a10.08972,10.08972,0,0,1-3.71855,9.93184,58.51114,58.51114,0,0,0,7.92549-.28475s9.09-.81172,12.44158-7.07627c1.13466-6.54167-8.24429-12.75542-8.24429-12.75542s-5.41578-4.0119-11.514-4.16431S58.6748,567.1416,58.6748,567.1416Z" style="fill:none;stroke:#fff;stroke-miterlimit:10"/></g><g id="レイヤー_4" data-name="レイヤー 4"><path d="M36.59473,120.02246c.47949-.23926,1.43945-.47949,2.63965-.96,0,3.84082,0,4.32031,1.44042,6.7207,4.08008,0,5.75977-.48047,14.16016-2.87988a95.98981,95.98981,0,0,1,11.04-2.88086l18.7207-3.83984c10.79981-2.16016,18.24024-3.36035,20.40039-3.36035l13.44043-.23926,8.64063-.48047,13.91992.24023h12.48047c11.52051.96,18.96,1.43946,19.20019,1.43946,5.28028-.96,5.28028-.96,6.96-.96,4.32031,0,4.32031,0,10.80078,4.08007l6,3.60059,3.36035,3.36035c3.83984,3.83984,4.08008,4.31934,4.08008,6.24024,0,2.39941-2.40039,4.55957-5.041,4.55957-1.91992,0-5.75977-1.2002-10.08008-3.12012q-6.83936-3.24024-25.91992-7.2002c-6.7207-1.43945-21.84082-2.39941-35.52148-2.39941-16.56055,0-18.71973.23926-40.80079,5.04L74.03516,130.583l-13.44043,3.60058-6,2.63965-7.91993,2.63965c-5.28027,4.08008-5.28027,4.08008-7.67968,4.08008-1.2002,0-1.2002,0-5.041-1.67969-14.87988-4.08008-15.59961-4.55957-15.59961-7.67969a14.58534,14.58534,0,0,1,.96-4.08007c.96-.24024,1.2002-.48047,1.67969-1.68067a3.69566,3.69566,0,0,0,2.64063-1.43945,16.90745,16.90745,0,0,1,4.31933-2.64063c4.08008-1.91992,6.96094-3.12011,7.2002-3.36035ZM118.67676,17.54c5.51953-1.43994,10.55957-3.6001,11.51953-4.79981,6.48047-5.52,6.96094-6,8.88086-6,.24023,0,.24023,0,3.36035-.24023,1.19922,0,6,1.43994,7.91992,2.16016,3.12012,1.67968,6.24024,5.76025,6.24024,8.64013a6.74764,6.74764,0,0,1-.24024,1.91992c-1.67969.48-3.12012.96-4.56054,1.43995-5.2793,1.92041-10.55958,3.60009-15.83985,5.28027-23.52051,7.20019-34.08105,9.36035-44.40137,9.36035l-4.08007.23975c-8.16016,0-17.52051-3.6001-21.83985-8.64014-1.44043-1.43994-1.44043-1.43994-4.08008-10.80029-.24023-.48-.24023-.48-.24023-.71973v-.48c1.20019.71973,1.91992,1.19971,2.39941,1.43994l5.52051,4.08008c2.16016,1.43994,10.32031,3.35986,14.40039,3.35986,7.44043,0,16.80078-1.43994,26.40039-4.08007ZM65.15527,104.66211c.96-2.16016,1.67969-2.63965,6.48047-6.24023C79.0752,92.90234,85.7959,86.18164,87.23535,82.58154l-2.39941-2.15966c-6.48047-5.52051-9.84082-11.04053-9.84082-15.84034,0-3.84033.24023-4.08008,8.88086-7.44043a17.22218,17.22218,0,0,0-.48047,4.56006c0,5.04,1.44043,6.96045,5.04,6.96045,4.56054,0,6.7207-.48,17.28027-3.84033l2.16016-.71973,2.16015-1.20019,5.28028-2.16016c6.71972-3.83984,6.71972-3.83984,9.60058-3.83984,6.71973,0,12.47949,3.83984,12.47949,8.64013,0,3.35987-.23925,3.35987-16.7998,9.6001a67.22215,67.22215,0,0,0-7.68066,4.08008l-9.35938,5.04L66.5957,104.42285Z" style="fill:#fff"/><path d="M62.51562,272.18066c-4.32031,1.91993-7.20019,3.12012-7.92089,3.36036-2.63965,1.19921-5.28028,2.16015-7.91993,3.12011a8.76969,8.76969,0,0,0-3.36035,2.15918l-3.35937,3.36035a8.85711,8.85711,0,0,1-5.76074,2.87989c-2.39942,0-2.39942,0-18.48047-7.91993-9.36035-2.40039-9.36035-2.40039-9.36035-5.75976,0-2.16016.24023-2.87988,3.36035-6l2.87988-3.12012a10.60168,10.60168,0,0,1,1.91992-2.16015c4.80078,4.08007,8.16016,5.04,19.20117,5.04.71973,0,.71973,0,6-.96,3.36036-.7207,6.96-1.44043,10.32032-1.91992,2.16015-.48047,10.08007-2.88086,22.08007-6.96094a107.64987,107.64987,0,0,1,13.2002-3.5996c3.60059-.48047,7.20019-.96,10.80078-1.67969,4.79981-.72071,9.36035-1.44043,13.91992-2.16016a92.19047,92.19047,0,0,1,14.64063-.96c4.55957,0,9.12012-.24023,9.83984-.7207,3.84082-.71973,4.32031-.71973,4.32031-.71973h9.60059l18.48047-.24023h.47949c6-.23926,6.24024-.23926,8.40039-3.59961.71973-.96,3.12012-1.91992,5.52051-1.91992,11.75976,0,26.64062,8.39941,26.64062,15.12011,0,3.12012-5.76074,6.96-10.32031,6.96-1.20019,0-1.20019,0-8.40039-3.12011l-4.08008-.96c-4.56054-1.43946-4.56054-1.43946-8.64062-1.67969-14.63965-1.44043-14.63965-1.44043-17.75977-1.44043-1.9209,0-6.001,0-18.96093.48047-4.79981.23925-4.79981.23925-20.4004,1.67968a78.64063,78.64063,0,0,1-10.7998.96v.71972a15.1712,15.1712,0,0,0,2.39941,1.68067l5.04,3.35937c3.12012,1.9209,5.04,4.32031,5.04,6.48047,0,1.44043,0,1.44043-6.24023,5.76074a97.45008,97.45008,0,0,0-6.23926,9.83985c-.24023.47949-3.84082,5.28027-9.60059,12a28.61533,28.61533,0,0,1-2.16015,2.87988c1.44043-.47949,2.63965-.71973,3.12011-.96,7.91993-2.63965,13.2002-4.31934,15.60059-4.55957,6.71973-.96,11.28027-1.68067,11.28027-1.68067a38.05255,38.05255,0,0,0,4.79981-1.67968h.96c5.28027,0,15.36035,3.60058,18.7207,6.96,3.59961,3.36035,6.24024,7.9209,6.48047,10.56054v1.67969c-3.36035.96-4.08008,2.40039-5.28027,13.44043l-1.91992,46.56152c-.24024,2.63965-.24024,4.55957-.24024,4.79981v2.87988c.47949,9.12012.71973,15.60059.71973,16.56055,0,.24023,0,.24023-.47949,5.52051,0,3.12011-.24024,3.83984-4.32032,8.39941a7.402,7.402,0,0,1-2.16015.24023c-3.12012,0-5.28028-2.39941-7.91992-8.40039-1.44043-3.59961-2.64063-6-2.88086-6.71972l-1.67969-3.12012a11.7414,11.7414,0,0,0-.96-2.40039c-2.87988-2.63965-5.04-3.59961-7.44043-3.59961-1.2002,0-2.39942.24023-14.63965,3.12012-3.60059.96-3.84082.96-8.88086,3.59961a11.80613,11.80613,0,0,1-4.32031,1.20019c-4.31934,0-12-7.91992-12-12.24023,0-3.12012,8.40039-18.72071,13.44043-24.48047,5.75976-6.96,9.60058-12.24024,9.60058-13.44043a2.63673,2.63673,0,0,0-.7207-1.43945c-10.55957-2.40039-11.04-2.64063-16.08008-8.40039l-.47949-.72071h2.15918c1.44043-.23926,2.16016-.71972,2.64062-.71972,3.12012-.96,6.24024-1.91993,9.12012-2.87989,2.63965-.71972,2.63965-.71972,3.12012-.71972,5.28027,0,7.44043.47949,11.28027,2.39941,6.71973,3.60059,9.12012,6,9.60059,10.08008l-2.88086,4.081c-2.87988.23926-3.59961.4795-5.75977,1.91993l-1.67968,1.19921-7.9209,6.48047c-12,8.64063-12.96,9.60059-14.87989,16.56055-1.20019,2.87988-1.20019,2.87988-1.20019,4.32031a2.40089,2.40089,0,0,0,2.63965,2.63965c.48047,0,.48047,0,11.76074-2.63965h20.88086c.23926,0,.23926,0,4.08008,2.87988a2.56866,2.56866,0,0,0,1.43945.4795c2.40039,0,3.36035-1.67969,3.83984-6.71973,0-.71973.24024-2.40039.48047-4.32031a15.90256,15.90256,0,0,0,.48047-4.08008L137.877,359.543l1.44043-46.56152a8.55338,8.55338,0,0,0-9.12109-6.71973l-2.87988-.24024-1.91993.24024-4.32031.47949a17.2724,17.2724,0,0,0-4.55957.96l-8.40039,2.40039-6.24023,1.2002c-4.55957,1.20019-4.55957,1.20019-5.04,1.20019l-3.83985-.48047-4.08007-.24023-5.76075-2.63965c-.23925-.24023-1.67968-.48047-2.87988-.96a6.76117,6.76117,0,0,1,1.91992-1.91992,44.31471,44.31471,0,0,1,3.36035-3.36035c5.28028-5.28028,6.96-7.68067,11.52051-19.2002,2.39942-6.7207,4.32031-13.20019,4.32031-16.08105,0-.71973,0-.71973-.96-1.91992a15.73665,15.73665,0,0,1-1.9209-3.12012,9.9685,9.9685,0,0,0-2.39941-.23926c-3.60059,0-3.60059,0-12.96094,2.63965l-3.59961.96c-3.60058,1.20019-7.20019,2.40039-10.56054,3.59961a39.48513,39.48513,0,0,1-3.83985,1.20019v.24024Zm18,134.40332c0,1.43946-.48046,2.39942-2.63964,3.83985a10.14,10.14,0,0,1-6.48047-3.83985c-1.67969-2.16015-2.64063-3.36035-2.87989-3.36035a13.24538,13.24538,0,0,1-1.91992-1.44043c-.96-.71972-1.68066-3.35937-1.68066-5.51953,0-.48047,0-.48047,2.16016-8.16015a4.12318,4.12318,0,0,0,.24023-1.91993l-.24023-4.80078c-.24024-2.39941-.4795-6-.4795-8.16015a67.65166,67.65166,0,0,1,.23926-6.96c.24024-4.79981.24024-7.91993.24024-8.4004v-9.5996l2.16015-23.52051.48047-8.64063.23926-3.12011.48047-.24024-.24024-.23926v-9.12109a5.138,5.138,0,0,1,1.91992,1.20019l3.60059,4.08008c3.35938,3.12012,3.35938,3.12012,3.83984,4.08008a37.00813,37.00813,0,0,1,1.44043,10.32031l-.7207,7.91993-.24023,7.92089c-1.43946,10.08008-1.91993,17.28028-1.43946,25.2002v1.68066Z" style="fill:#fff"/><path d="M28.43457,627.86328c-4.08008-1.20019-6.24023-1.67969-6.7207-1.91992-1.91992-.96-2.87989-2.40039-4.31934-6.96.47949-1.68067.96-2.88086.96-3.12012.23926-.24023.47949-.7207.96-.96l.96-.7207c2.63965-2.16016,5.28028-4.31934,8.16016-6.4795.24023-.24023,1.67969-1.20019,3.36035-2.40039.96,6.48047,1.67969,7.91993,4.31934,7.91993,1.20019,0,1.20019,0,8.64062-2.39942.71973-.24023,2.87989-1.20019,6.24024-2.64062,2.16015-.96,6-2.63965,11.28027-4.79981l38.40039-16.32031,14.64063-5.04c.71972-8.88086.71972-9.36035.71972-11.76074l-.71972-14.63965v-3.36035a11.81219,11.81219,0,0,1-2.87989.71973c-3.12011.96-6.48047,1.91992-9.60058,2.64062l-12,4.08008-4.32032.96c-1.43945.23926-3.12011,1.19922-6.71972,3.35937L76.43555,562.582a12.09494,12.09494,0,0,0-2.16016-1.91992,25.3999,25.3999,0,0,0-2.87988-2.40039,11.2494,11.2494,0,0,1-4.08008-8.16016c0-2.16015.47949-3.83984,2.16016-6.48047a10.12441,10.12441,0,0,1,1.20019.48047l1.43945-.7207,4.56055-2.39941,9.59961-6.24024,4.56055-2.64062,6.24023-4.79981c15.12012-9.83984,16.08008-10.7998,16.56055-13.67969h-.96a5.717,5.717,0,0,0-2.88086.96c-2.39942.96-3.83985,1.67969-4.31934,1.91993l-18.48047,6c-3.84082,1.43945-7.92089,2.87988-12.001,4.32031a37.02492,37.02492,0,0,1-3.83985.71973,37.37127,37.37127,0,0,0-3.36035,1.67968,14.62583,14.62583,0,0,1-2.63965,1.2002c-1.67968-.71973-1.91992-.96-2.87988-3.12012a6.59276,6.59276,0,0,1-2.64062-1.91992c-1.43946-1.44043-2.63965-3.12012-3.83985-4.56055a15.37659,15.37659,0,0,0-2.16015-1.43945,5.81375,5.81375,0,0,1-.96-3.12012c0-3.12012.71973-5.52051,1.91993-6.24023.48047-.48047.48047-.48047,3.60058-.71973,6.96-2.40039,9.83985-4.08008,13.2002-8.16016l5.52051-5.76074L80.03516,491.54c5.76074-6.48047,8.88086-12,8.88086-15.36035,0-1.2002-1.2002-2.87989-3.12012-3.83985-2.87988-1.68066-2.87988-1.68066-3.60059-2.87988a18.16663,18.16663,0,0,0-2.39941-3.36035c2.39941-.24023,3.83984-.48047,4.55957-.48047l5.76074-1.43945a3.03911,3.03911,0,0,1,1.43945-.24024c2.64063,0,2.64063,0,10.56055,4.56055,6.48047,3.83984,8.87988,6.47949,8.87988,9.59961,0,2.16016,0,2.16016-9.36035,10.56055l-7.91992,9.12011a82.9889,82.9889,0,0,1-11.52051,10.32032c-1.43945,1.20019-2.87988,2.40039-4.08008,3.36035l5.76075-.96,47.28125-11.041,1.91992-1.19922,6.96-2.40039.47949-.48047c.7207-2.87988.7207-3.35937,2.16016-5.28027h1.44043l.24023-.23926a25.7411,25.7411,0,0,1,3.83985.47949l4.55957,1.68067c8.88086,2.87988,9.12109,3.12011,9.12109,6.24023,0,2.87988-1.2002,3.83985-7.2002,5.75977l-6.96093,2.87988-3.83985,1.2002-5.28027,1.67968-5.04,1.44043-1.91992.96c-2.40039,1.2002-2.40039,1.2002-2.63965,1.67969-.48047,1.2002-2.88086,16.08106-2.88086,18.001,0,.96.24024,2.39941.48047,4.31933a13.00324,13.00324,0,0,1,2.87988-.96c1.91992-.47949,3.12012-.71972,3.12012-.96.24023.24024,1.2002-.96,1.91992-2.16015a4.23811,4.23811,0,0,1,1.44043-.23926c1.2002,0,7.44043,2.16015,8.63965,2.87988,1.68066,1.2002,2.64062,2.40039,2.64062,4.08008,0,2.40039-.71972,2.87988-10.80078,6.96l-8.16015,2.40039c-1.91992,1.43945-1.91992,1.91992-1.91992,11.75977l-.24024,3.36035.24024,11.04c0,.24023-.24024,1.20019-.4795,2.64062l.96,1.43946c1.67969-.24024,2.63965-.4795,2.87989-.4795,2.40039-.7207,4.56054-1.44043,6.96-1.91992.48047-.24023.48047-.24023,15.60058-2.88086,5.04-.96,5.75977-.96,15.12012-1.19922,7.68066-.48047,9.36035-1.20019,11.52051-5.28027a6.324,6.324,0,0,1,1.67969-.24023c4.80078,0,17.041,4.32031,23.76074,8.40039,2.63965,1.43945,4.56055,4.32031,4.56055,6.71972,0,2.16016-1.2002,3.12012-4.56055,3.83985l-3.83985.96093L183.958,582.74219l-2.87989-.24024h-5.5205l-16.79981,1.91993-15.36035,1.20019-14.88086,3.83984c-.24023,0-1.43945.48047-2.63965.72071v1.20019l-.48047,6.71973v11.52051l.24024,2.39941,1.91992,47.52149a9.52075,9.52075,0,0,1-.47949,1.44043c-.24024.23925-.24024,2.15917-.48047,5.27929-.24023,3.36035-1.91992,4.80078-8.16016,6.72071-3.83984-3.36036-4.08007-4.32032-5.5205-12.72071-2.39942-8.16015-2.39942-8.16015-2.39942-11.04,0-6,.47949-7.67968,3.59961-10.7998l.96-43.44141-.24023-2.63965-2.63965.71973c-1.2002.47949-1.91992.71973-2.40039.96l-2.87988,1.44043-3.12012,1.19922-8.63965,3.84082-8.88086,3.83984-47.041,27.84082-.23926.23926a22.57424,22.57424,0,0,1-3.84082-.71973Zm36.96094-37.20117c3.12011-2.39941,4.08008-4.08008,4.08008-7.67969,0-4.32031-.72071-5.52051-3.60059-6.7207-2.16016-1.19922-3.59961-3.12012-7.2002-9.12012a11.95446,11.95446,0,0,1,4.56055-.96c11.52051,0,22.80078,8.16016,22.80078,16.80078,0,1.67969-1.20019,2.87988-4.08008,4.55957-5.28027,2.64063-5.28027,2.64063-9.36035,2.88086H69.71582Zm49.44043-53.52051c.24023-4.08008.24023-6.001.24023-7.68066a33.37479,33.37479,0,0,0-.24023-4.08008c-4.55957,2.63965-4.55957,2.63965-7.19922,4.08008-1.2002.71972-3.60059,1.67968-6.96094,3.36035a23.40165,23.40165,0,0,0-5.04,2.87988c-2.39941,2.16016-4.7998,4.32031-6.96,6.48047-2.87988,1.91992-2.87988,2.16016-5.75976,6a32.89128,32.89128,0,0,0,8.63964-.96c1.68067-.48047,6.72071-1.91992,15.36036-4.56055l4.08007-1.43945a15.341,15.341,0,0,0,3.60059-1.44043Z" style="fill:#fff"/><rect width="210" height="675.93945" style="fill:none"/></g></g></svg>